<svg width="32" height="32" viewBox="0 0 32 32" fill="none" xmlns="http://www.w3.org/2000/svg">
<rect width="32" height="32" rx="16" fill="#F2F4F7"/>
<path d="M19.333 10.333H12.6663C10.6663 10.333 9.33301 11.333 9.33301 13.6663V18.333C9.33301 20.6663 10.6663 21.6663 12.6663 21.6663H19.333C21.333 21.6663 22.6663 20.6663 22.6663 18.333V13.6663C22.6663 11.333 21.333 10.333 19.333 10.333ZM19.6463 14.393L17.5597 16.0597C17.1197 16.413 16.5597 16.5863 15.9997 16.5863C15.4397 16.5863 14.873 16.413 14.4397 16.0597L12.353 14.393C12.1397 14.2197 12.1063 13.8997 12.273 13.6863C12.4463 13.473 12.7597 13.433 12.973 13.6063L15.0597 15.273C15.5663 15.6797 16.4263 15.6797 16.933 15.273L19.0197 13.6063C19.233 13.433 19.553 13.4663 19.7197 13.6863C19.893 13.8997 19.8597 14.2197 19.6463 14.393Z" fill="#050505"/>
</svg>
