<svg width="32" height="32" viewBox="0 0 32 32" fill="none" xmlns="http://www.w3.org/2000/svg">
<rect width="32" height="32" rx="16" fill="#F2F4F7"/>
<path fill-rule="evenodd" clip-rule="evenodd" d="M9 11C9 9.89543 9.89543 9 11 9H11.9144C12.488 9 12.988 9.39037 13.1271 9.94683L13.8643 12.8956C13.9863 13.3835 13.804 13.897 13.4016 14.1988L12.5392 14.8456C12.4496 14.9128 12.4302 15.0111 12.4553 15.0798C13.2123 17.1463 14.8537 18.7877 16.9202 19.5447C16.9889 19.5698 17.0872 19.5504 17.1544 19.4608L17.8012 18.5984C18.103 18.196 18.6165 18.0137 19.1044 18.1357L22.0532 18.8729C22.6096 19.012 23 19.512 23 20.0856V21C23 22.1046 22.1046 23 21 23H19.5C13.701 23 9 18.299 9 12.5V11Z" fill="#050505"/>
</svg>
