<svg width="18" height="18" viewBox="0 0 18 18" fill="none" xmlns="http://www.w3.org/2000/svg">
<path d="M9 11.0625C7.86 11.0625 6.9375 10.14 6.9375 9C6.9375 7.86 7.86 6.9375 9 6.9375C10.14 6.9375 11.0625 7.86 11.0625 9C11.0625 10.14 10.14 11.0625 9 11.0625ZM9 8.0625C8.4825 8.0625 8.0625 8.4825 8.0625 9C8.0625 9.5175 8.4825 9.9375 9 9.9375C9.5175 9.9375 9.9375 9.5175 9.9375 9C9.9375 8.4825 9.5175 8.0625 9 8.0625Z" fill="#FF805E"/>
<path d="M15.0002 14.0627C14.8802 14.0627 14.7677 14.0252 14.6627 13.9502C14.4152 13.7627 14.3627 13.4102 14.5502 13.1627C15.4577 11.9552 15.9377 10.5152 15.9377 9.00021C15.9377 7.48521 15.4577 6.04522 14.5502 4.83772C14.3627 4.59022 14.4152 4.23771 14.6627 4.05021C14.9102 3.86271 15.2627 3.9152 15.4502 4.1627C16.5077 5.5652 17.0627 7.23771 17.0627 9.00021C17.0627 10.7627 16.5077 12.4352 15.4502 13.8377C15.3377 13.9877 15.1727 14.0627 15.0002 14.0627Z" fill="#FF805E"/>
<path d="M3 14.0627C2.8275 14.0627 2.6625 13.9877 2.55 13.8377C1.4925 12.4352 0.9375 10.7627 0.9375 9.00021C0.9375 7.23771 1.4925 5.5652 2.55 4.1627C2.7375 3.9152 3.09001 3.86271 3.33751 4.05021C3.58501 4.23771 3.6375 4.59022 3.45 4.83772C2.5425 6.04522 2.0625 7.48521 2.0625 9.00021C2.0625 10.5152 2.5425 11.9552 3.45 13.1627C3.6375 13.4102 3.58501 13.7627 3.33751 13.9502C3.24001 14.0252 3.12 14.0627 3 14.0627Z" fill="#FF805E"/>
<path d="M12.5998 12.2625C12.4798 12.2625 12.3673 12.225 12.2623 12.15C12.0148 11.9625 11.9623 11.61 12.1498 11.3625C12.6673 10.68 12.9373 9.86251 12.9373 9.00001C12.9373 8.13751 12.6673 7.32002 12.1498 6.63752C11.9623 6.39002 12.0148 6.0375 12.2623 5.85C12.5098 5.6625 12.8623 5.71502 13.0498 5.96252C13.7098 6.84752 14.0623 7.89751 14.0623 9.00001C14.0623 10.1025 13.7098 11.16 13.0498 12.0375C12.9373 12.1875 12.7723 12.2625 12.5998 12.2625Z" fill="#FF805E"/>
<path d="M5.40001 12.2625C5.22751 12.2625 5.0625 12.1875 4.95 12.0375C4.29 11.1525 3.9375 10.1025 3.9375 9.00001C3.9375 7.89751 4.29 6.84002 4.95 5.96252C5.1375 5.71502 5.49 5.6625 5.7375 5.85C5.985 6.0375 6.03749 6.39002 5.84999 6.63752C5.33249 7.32002 5.0625 8.13751 5.0625 9.00001C5.0625 9.86251 5.33249 10.68 5.84999 11.3625C6.03749 11.61 5.985 11.9625 5.7375 12.15C5.64 12.225 5.52001 12.2625 5.40001 12.2625Z" fill="#FF805E"/>
</svg>
