<svg width="24" height="25" viewBox="0 0 24 25" fill="none" xmlns="http://www.w3.org/2000/svg">
<path d="M21.3759 7.46665C21.4713 6.98936 21.0505 6.56856 20.5732 6.66402L14.7876 7.82114C14.2534 7.92798 14.0538 8.5871 14.439 8.97232L16.1532 10.6865L12.4498 14.3899L9.51083 11.4509C9.34205 11.2821 9.11313 11.1873 8.87443 11.1873C8.63574 11.1873 8.40682 11.2821 8.23804 11.4509L2.87493 16.814C2.52346 17.1655 2.52346 17.7353 2.87493 18.0868C3.2264 18.4383 3.79625 18.4383 4.14772 18.0868L8.87443 13.3601L11.8134 16.2991C12.1649 16.6506 12.7348 16.6506 13.0862 16.2991L17.426 11.9593L19.0675 13.6008C19.4528 13.9861 20.1119 13.7865 20.2187 13.2523L21.3759 7.46665Z" fill="#050505"/>
</svg>
