<svg width="415" height="397" viewBox="0 0 415 397" fill="none" xmlns="http://www.w3.org/2000/svg">
<g opacity="0.12">
<path d="M241.578 -96.898C298.566 -78.4064 352.156 -46.5252 397.427 -1.25432C442.698 44.017 474.58 97.6077 493.071 154.597C513.399 85.8057 496.418 8.33526 442.128 -45.9545C387.838 -100.244 310.368 -117.225 241.578 -96.898Z" fill="#A6C4C4"/>
<path d="M174.261 -35.5755C158.626 -38.271 142.668 -32.1853 133.532 -19.2133C77.9416 59.7233 85.447 169.528 156.049 240.129C226.65 310.731 336.454 318.236 415.391 262.646C428.363 253.511 434.448 237.553 431.753 221.918C421.049 159.83 391.729 100.325 343.791 52.3867C295.853 4.44912 236.348 -24.8716 174.261 -35.5755Z" fill="#A6C4C4"/>
</g>
<path d="M225.495 68.6599C228.456 74.4644 230.125 81.0372 230.125 87.9999C230.125 94.9627 228.456 101.536 225.495 107.34C232.348 103.613 237 96.3498 237 87.9999C237 79.6501 232.348 72.3868 225.495 68.6599Z" fill="#FF805E"/>
<path d="M215.602 68.1986C214.607 66.7889 212.912 66.0298 211.212 66.3248C200.867 68.1201 193 77.1413 193 87.9999C193 98.8585 200.867 107.88 211.212 109.675C212.912 109.97 214.607 109.211 215.602 107.801C219.554 102.204 221.875 95.3728 221.875 87.9999C221.875 80.627 219.554 73.7963 215.602 68.1986Z" fill="#8D8DFF"/>
<path d="M257.584 98.2452C261.448 98.2452 264.472 96.8732 266.264 94.5772V87.3812H258.844L258.704 91.0212L261.672 90.8812V93.1772C260.58 94.0452 259.236 94.4652 257.948 94.4652C254.728 94.4652 252.684 92.0292 252.684 88.1372C252.684 84.2452 254.588 81.8092 257.64 81.8092C259.656 81.8092 261.056 83.0132 261.252 84.9452H266.264C265.928 80.6892 262.596 78.0292 257.64 78.0292C251.676 78.0292 247.924 81.9212 247.924 88.1372C247.924 94.3532 251.648 98.2452 257.584 98.2452Z" fill="#FEFEFE"/>
<path d="M278.537 97.9092H282.765V87.7452C282.765 84.0772 280.049 82.0052 275.793 82.0052C271.425 82.0052 268.625 84.0212 268.345 87.2972H272.601C272.741 85.9252 273.861 85.0852 275.597 85.0852C277.361 85.0852 278.397 85.9812 278.397 87.4652V88.5292H275.541C271.341 88.5292 268.793 90.3492 268.793 93.5692C268.793 96.3132 270.781 98.2452 273.805 98.2452C275.737 98.2452 277.389 97.7132 278.453 96.3692L278.537 97.9092ZM273.077 93.2892C273.077 92.0852 274.001 91.5812 275.457 91.5812L278.397 91.5532V92.7572C277.557 94.0452 276.409 94.8012 274.897 94.8012C273.665 94.8012 273.077 94.1292 273.077 93.2892Z" fill="#FEFEFE"/>
<path d="M285.977 97.9092H290.345V77.1892H285.977V97.9092Z" fill="#FEFEFE"/>
<path d="M293.687 97.9092H298.055V82.3412H293.687V97.9092ZM293.519 80.2692H298.167V76.1812H293.519V80.2692Z" fill="#FEFEFE"/>
<path d="M301.399 97.9092H305.767V77.1892H301.399V97.9092Z" fill="#FEFEFE"/>
<path d="M316.473 98.2452C320.841 98.2452 323.809 96.0332 324.173 92.4772H319.805C319.525 93.7932 318.265 94.7452 316.473 94.7452C314.177 94.7452 312.917 93.0372 312.777 90.7972H324.229C324.649 85.3932 321.737 82.0052 316.697 82.0052C311.601 82.0052 308.381 85.1412 308.381 90.1252C308.381 95.1092 311.489 98.2452 316.473 98.2452ZM313.113 87.8012C313.645 86.2052 314.793 85.3932 316.669 85.3932C318.405 85.3932 319.665 86.3732 319.777 87.8012H313.113Z" fill="#FEFEFE"/>
<path d="M334.108 98.2452C339.092 98.2452 342.088 95.1932 342.088 90.1252C342.088 85.0572 339.092 82.0052 334.108 82.0052C329.124 82.0052 326.1 85.0572 326.1 90.1252C326.1 95.1932 329.124 98.2452 334.108 98.2452ZM330.468 90.1252C330.468 87.2412 331.84 85.5332 334.108 85.5332C336.348 85.5332 337.72 87.2412 337.72 90.1252C337.72 93.0092 336.348 94.7172 334.108 94.7172C331.84 94.7172 330.468 93.0092 330.468 90.1252Z" fill="#FEFEFE"/>
</svg>
