<svg width="113" height="36" viewBox="0 0 113 36" fill="none" xmlns="http://www.w3.org/2000/svg">
<path d="M24.3712 3.49512C26.5915 7.84845 27.8435 12.7781 27.8435 18.0001C27.8435 23.2222 26.5915 28.1518 24.3711 32.5052C29.511 29.71 32.9998 24.2625 32.9998 18.0001C32.9998 11.7378 29.5111 6.29027 24.3712 3.49512Z" fill="#FF805E"/>
<path d="M16.9518 3.14895C16.2055 2.09171 14.9341 1.52232 13.6591 1.7436C5.90015 3.09009 0 9.85599 0 17.9999C0 26.1439 5.90011 32.9098 13.659 34.2563C14.9341 34.4776 16.2054 33.9082 16.9518 32.8509C19.9154 28.6527 21.6562 23.5296 21.6562 17.9999C21.6562 12.4703 19.9154 7.34722 16.9518 3.14895Z" fill="#8D8DFF"/>
<path d="M48.4384 25.6847C51.3364 25.6847 53.6044 24.6557 54.9484 22.9337V17.5367H49.3834L49.2784 20.2667L51.5044 20.1617V21.8837C50.6854 22.5347 49.6774 22.8497 48.7114 22.8497C46.2964 22.8497 44.7634 21.0227 44.7634 18.1037C44.7634 15.1847 46.1914 13.3577 48.4804 13.3577C49.9924 13.3577 51.0424 14.2607 51.1894 15.7097H54.9484C54.6964 12.5177 52.1974 10.5227 48.4804 10.5227C44.0074 10.5227 41.1934 13.4417 41.1934 18.1037C41.1934 22.7657 43.9864 25.6847 48.4384 25.6847Z" fill="#FEFEFE"/>
<path d="M64.1532 25.4327H67.3242V17.8097C67.3242 15.0587 65.2873 13.5047 62.0953 13.5047C58.8193 13.5047 56.7193 15.0167 56.5093 17.4737H59.7013C59.8062 16.4447 60.6463 15.8147 61.9483 15.8147C63.2713 15.8147 64.0483 16.4867 64.0483 17.5997V18.3977H61.9062C58.7562 18.3977 56.8453 19.7627 56.8453 22.1777C56.8453 24.2357 58.3363 25.6847 60.6042 25.6847C62.0532 25.6847 63.2922 25.2857 64.0903 24.2777L64.1532 25.4327ZM60.0583 21.9677C60.0583 21.0647 60.7513 20.6867 61.8433 20.6867L64.0483 20.6657V21.5687C63.4183 22.5347 62.5573 23.1017 61.4233 23.1017C60.4993 23.1017 60.0583 22.5977 60.0583 21.9677Z" fill="#FEFEFE"/>
<path d="M69.733 25.4327H73.009V9.89272H69.733V25.4327Z" fill="#FEFEFE"/>
<path d="M75.5157 25.4327H78.7917V13.7567H75.5157V25.4327ZM75.3897 12.2027H78.8757V9.13672H75.3897V12.2027Z" fill="#FEFEFE"/>
<path d="M81.2994 25.4327H84.5754V9.89272H81.2994V25.4327Z" fill="#FEFEFE"/>
<path d="M92.6051 25.6847C95.8811 25.6847 98.1071 24.0257 98.3801 21.3587H95.1041C94.8941 22.3457 93.9491 23.0597 92.6051 23.0597C90.8831 23.0597 89.9381 21.7787 89.8331 20.0987H98.4221C98.7371 16.0457 96.5531 13.5047 92.7731 13.5047C88.9511 13.5047 86.5361 15.8567 86.5361 19.5947C86.5361 23.3327 88.8671 25.6847 92.6051 25.6847ZM90.0851 17.8517C90.4841 16.6547 91.3451 16.0457 92.7521 16.0457C94.0541 16.0457 94.9991 16.7807 95.0831 17.8517H90.0851Z" fill="#FEFEFE"/>
<path d="M105.831 25.6847C109.569 25.6847 111.816 23.3957 111.816 19.5947C111.816 15.7937 109.569 13.5047 105.831 13.5047C102.093 13.5047 99.8252 15.7937 99.8252 19.5947C99.8252 23.3957 102.093 25.6847 105.831 25.6847ZM103.101 19.5947C103.101 17.4317 104.13 16.1507 105.831 16.1507C107.511 16.1507 108.54 17.4317 108.54 19.5947C108.54 21.7577 107.511 23.0387 105.831 23.0387C104.13 23.0387 103.101 21.7577 103.101 19.5947Z" fill="#FEFEFE"/>
</svg>
