<svg width="44" height="45" viewBox="0 0 44 45" fill="none" xmlns="http://www.w3.org/2000/svg">
<g filter="url(#filter0_dd_441_57811)">
<rect x="2" y="2" width="40" height="40" rx="7" fill="white"/>
<rect x="2.5" y="2.5" width="39" height="39" rx="6.5" stroke="#EFEFEF"/>
<path d="M27.5585 13.667H25.9752C24.1585 13.667 23.2002 14.6253 23.2002 16.442V18.0253C23.2002 19.842 24.1585 20.8003 25.9752 20.8003H27.5585C29.3752 20.8003 30.3335 19.842 30.3335 18.0253V16.442C30.3335 14.6253 29.3752 13.667 27.5585 13.667Z" fill="#8D8DFF"/>
<path d="M18.0337 23.1914H16.4503C14.6253 23.1914 13.667 24.1497 13.667 25.9664V27.5497C13.667 29.3747 14.6253 30.3331 16.442 30.3331H18.0253C19.842 30.3331 20.8003 29.3747 20.8003 27.5581V25.9747C20.8087 24.1497 19.8503 23.1914 18.0337 23.1914Z" fill="#8D8DFF"/>
<path d="M17.242 20.817C19.2164 20.817 20.817 19.2164 20.817 17.242C20.817 15.2676 19.2164 13.667 17.242 13.667C15.2676 13.667 13.667 15.2676 13.667 17.242C13.667 19.2164 15.2676 20.817 17.242 20.817Z" fill="#8D8DFF"/>
<path d="M26.7586 30.3336C28.733 30.3336 30.3336 28.733 30.3336 26.7586C30.3336 24.7842 28.733 23.1836 26.7586 23.1836C24.7842 23.1836 23.1836 24.7842 23.1836 26.7586C23.1836 28.733 24.7842 30.3336 26.7586 30.3336Z" fill="#8D8DFF"/>
</g>
<defs>
<filter id="filter0_dd_441_57811" x="0" y="0" width="44" height="45" filterUnits="userSpaceOnUse" color-interpolation-filters="sRGB">
<feFlood flood-opacity="0" result="BackgroundImageFix"/>
<feColorMatrix in="SourceAlpha" type="matrix" values="0 0 0 0 0 0 0 0 0 0 0 0 0 0 0 0 0 0 127 0" result="hardAlpha"/>
<feOffset dy="1"/>
<feGaussianBlur stdDeviation="1"/>
<feColorMatrix type="matrix" values="0 0 0 0 0.0941176 0 0 0 0 0.0941176 0 0 0 0 0.109804 0 0 0 0.06 0"/>
<feBlend mode="normal" in2="BackgroundImageFix" result="effect1_dropShadow_441_57811"/>
<feColorMatrix in="SourceAlpha" type="matrix" values="0 0 0 0 0 0 0 0 0 0 0 0 0 0 0 0 0 0 127 0" result="hardAlpha"/>
<feOffset/>
<feGaussianBlur stdDeviation="1"/>
<feColorMatrix type="matrix" values="0 0 0 0 0.0941176 0 0 0 0 0.0941176 0 0 0 0 0.109804 0 0 0 0.02 0"/>
<feBlend mode="normal" in2="effect1_dropShadow_441_57811" result="effect2_dropShadow_441_57811"/>
<feBlend mode="normal" in="SourceGraphic" in2="effect2_dropShadow_441_57811" result="shape"/>
</filter>
</defs>
</svg>
