<svg width="40" height="40" viewBox="0 0 40 40" fill="none" xmlns="http://www.w3.org/2000/svg">
<rect width="40" height="40" rx="7" fill="#E6F6FF"/>
<path d="M24.4082 13.4504L24.3499 16.6087C24.3416 17.042 24.6166 17.617 24.9666 17.8754L27.0332 19.442C28.3582 20.442 28.1416 21.667 26.5582 22.167L23.8666 23.0087C23.4166 23.1504 22.9416 23.642 22.8249 24.1004L22.1832 26.5504C21.6749 28.4837 20.4082 28.6754 19.3582 26.9754L17.8916 24.6004C17.6249 24.167 16.9916 23.842 16.4916 23.867L13.7082 24.0087C11.7166 24.1087 11.1499 22.9587 12.4499 21.442L14.0999 19.5254C14.4082 19.167 14.5499 18.5004 14.4082 18.0504L13.5582 15.3504C13.0666 13.767 13.9499 12.892 15.5249 13.4087L17.9832 14.217C18.3999 14.3504 19.0249 14.2587 19.3749 14.0004L21.9416 12.1504C23.3332 11.1587 24.4416 11.742 24.4082 13.4504Z" fill="#8D8DFF"/>
<path d="M27.8669 27.0578L25.3419 24.5328C25.1003 24.2911 24.7003 24.2911 24.4586 24.5328C24.2169 24.7745 24.2169 25.1745 24.4586 25.4161L26.9836 27.9411C27.1086 28.0661 27.2669 28.1245 27.4253 28.1245C27.5836 28.1245 27.7419 28.0661 27.8669 27.9411C28.1086 27.6995 28.1086 27.2995 27.8669 27.0578Z" fill="#8D8DFF"/>
</svg>
