<svg width="40" height="40" viewBox="0 0 40 40" fill="none" xmlns="http://www.w3.org/2000/svg">
<rect width="40" height="40" rx="7" fill="#E6F6FF"/>
<path d="M23.1667 11.8421C22.8251 11.5004 22.2334 11.7337 22.2334 12.2087V15.1171C22.2334 16.3337 23.2667 17.3421 24.5251 17.3421C25.3167 17.3504 26.4167 17.3504 27.3584 17.3504C27.8334 17.3504 28.0834 16.7921 27.7501 16.4587C26.5501 15.2504 24.4001 13.0754 23.1667 11.8421Z" fill="#8D8DFF"/>
<path d="M27.083 18.492H24.6747C22.6997 18.492 21.0913 16.8837 21.0913 14.9087V12.5003C21.0913 12.042 20.7163 11.667 20.258 11.667H16.7247C14.158 11.667 12.083 13.3337 12.083 16.3087V23.692C12.083 26.667 14.158 28.3337 16.7247 28.3337H23.2747C25.8413 28.3337 27.9163 26.667 27.9163 23.692V19.3253C27.9163 18.867 27.5413 18.492 27.083 18.492ZM19.583 24.792H16.2497C15.908 24.792 15.6247 24.5087 15.6247 24.167C15.6247 23.8253 15.908 23.542 16.2497 23.542H19.583C19.9247 23.542 20.208 23.8253 20.208 24.167C20.208 24.5087 19.9247 24.792 19.583 24.792ZM21.2497 21.4587H16.2497C15.908 21.4587 15.6247 21.1753 15.6247 20.8337C15.6247 20.492 15.908 20.2087 16.2497 20.2087H21.2497C21.5913 20.2087 21.8747 20.492 21.8747 20.8337C21.8747 21.1753 21.5913 21.4587 21.2497 21.4587Z" fill="#8D8DFF"/>
</svg>
