<svg width="34" height="34" viewBox="0 0 34 34" fill="none" xmlns="http://www.w3.org/2000/svg">
<rect width="34" height="34" rx="17" fill="white" fill-opacity="0.3"/>
<path fill-rule="evenodd" clip-rule="evenodd" d="M21.5 16.9999C21.5 17.3727 21.1978 17.6749 20.825 17.6749H14.8509L16.7928 19.4383C17.0616 19.6967 17.0699 20.124 16.8116 20.3928C16.5532 20.6615 16.1259 20.6699 15.8572 20.4115L12.7072 17.4865C12.5748 17.3592 12.5 17.1835 12.5 16.9999C12.5 16.8163 12.5748 16.6406 12.7072 16.5133L15.8572 13.5883C16.1259 13.33 16.5532 13.3383 16.8116 13.6071C17.0699 13.8758 17.0616 14.3031 16.7928 14.5615L14.8509 16.3249L20.825 16.3249C21.1978 16.3249 21.5 16.6271 21.5 16.9999Z" fill="#FEFEFE"/>
</svg>
