<svg width="32" height="35" viewBox="0 0 32 35" fill="none" xmlns="http://www.w3.org/2000/svg">
<path d="M23.6329 3.38916C25.7859 7.61057 27 12.3908 27 17.4546C27 22.5184 25.7859 27.2987 23.6328 31.5201C28.617 28.8097 32 23.5272 32 17.4546C32 11.382 28.617 6.09961 23.6329 3.38916Z" fill="#FF805E"/>
<path d="M16.4381 3.05366C15.7144 2.02846 14.4816 1.47633 13.2452 1.6909C5.72135 2.99658 0 9.55745 0 17.4546C0 25.3518 5.72132 31.9126 13.2451 33.2183C14.4815 33.4329 15.7144 32.8808 16.4381 31.8556C19.3119 27.7845 21 22.8167 21 17.4546C21 12.0925 19.3119 7.12471 16.4381 3.05366Z" fill="#08302F"/>
</svg>
