<svg width="34" height="34" viewBox="0 0 34 34" fill="none" xmlns="http://www.w3.org/2000/svg">
<rect width="34" height="34" rx="17" fill="white" fill-opacity="0.3"/>
<path d="M21.0875 25.0625C20.24 25.0625 19.3475 24.86 18.425 24.47C17.525 24.0875 16.6175 23.5625 15.7325 22.925C14.855 22.28 14.0075 21.56 13.205 20.7725C12.41 19.97 11.69 19.1225 11.0525 18.2525C10.4075 17.3525 9.89 16.4525 9.5225 15.5825C9.1325 14.6525 8.9375 13.7525 8.9375 12.905C8.9375 12.32 9.0425 11.765 9.245 11.2475C9.455 10.715 9.7925 10.22 10.25 9.7925C10.8275 9.2225 11.4875 8.9375 12.1925 8.9375C12.485 8.9375 12.785 9.005 13.04 9.125C13.3325 9.26 13.58 9.4625 13.76 9.7325L15.5 12.185C15.6575 12.4025 15.7775 12.6125 15.86 12.8225C15.9575 13.0475 16.01 13.2725 16.01 13.49C16.01 13.775 15.9275 14.0525 15.77 14.315C15.6575 14.5175 15.485 14.735 15.2675 14.9525L14.7575 15.485C14.765 15.5075 14.7725 15.5225 14.78 15.5375C14.87 15.695 15.05 15.965 15.395 16.37C15.7625 16.79 16.1075 17.1725 16.4525 17.525C16.895 17.96 17.2625 18.305 17.6075 18.59C18.035 18.95 18.3125 19.13 18.4775 19.2125L18.4625 19.25L19.01 18.71C19.2425 18.4775 19.4675 18.305 19.685 18.1925C20.0975 17.9375 20.6225 17.8925 21.1475 18.11C21.3425 18.1925 21.5525 18.305 21.7775 18.4625L24.2675 20.2325C24.545 20.42 24.7475 20.66 24.8675 20.945C24.98 21.23 25.0325 21.4925 25.0325 21.755C25.0325 22.115 24.95 22.475 24.7925 22.8125C24.635 23.15 24.44 23.4425 24.1925 23.7125C23.765 24.185 23.3 24.5225 22.76 24.74C22.2425 24.95 21.68 25.0625 21.0875 25.0625ZM12.1925 10.0625C11.78 10.0625 11.3975 10.2425 11.03 10.6025C10.685 10.925 10.445 11.2775 10.295 11.66C10.1375 12.05 10.0625 12.4625 10.0625 12.905C10.0625 13.6025 10.2275 14.36 10.5575 15.14C10.895 15.935 11.3675 16.76 11.9675 17.585C12.5675 18.41 13.25 19.2125 14 19.97C14.75 20.7125 15.56 21.4025 16.3925 22.01C17.2025 22.6025 18.035 23.0825 18.86 23.4275C20.1425 23.975 21.3425 24.1025 22.3325 23.69C22.715 23.5325 23.0525 23.2925 23.36 22.9475C23.5325 22.76 23.6675 22.5575 23.78 22.3175C23.87 22.13 23.915 21.935 23.915 21.74C23.915 21.62 23.8925 21.5 23.8325 21.365C23.81 21.32 23.765 21.2375 23.6225 21.14L21.1325 19.37C20.9825 19.265 20.8475 19.19 20.72 19.1375C20.555 19.07 20.4875 19.0025 20.2325 19.16C20.0825 19.235 19.9475 19.3475 19.7975 19.4975L19.2275 20.06C18.935 20.345 18.485 20.4125 18.14 20.285L17.9375 20.195C17.63 20.03 17.27 19.775 16.8725 19.4375C16.5125 19.13 16.1225 18.77 15.65 18.305C15.2825 17.93 14.915 17.5325 14.5325 17.09C14.18 16.6775 13.925 16.325 13.7675 16.0325L13.6775 15.8075C13.6325 15.635 13.6175 15.5375 13.6175 15.4325C13.6175 15.1625 13.715 14.9225 13.9025 14.735L14.465 14.15C14.615 14 14.7275 13.8575 14.8025 13.73C14.8625 13.6325 14.885 13.55 14.885 13.475C14.885 13.415 14.8625 13.325 14.825 13.235C14.7725 13.115 14.69 12.98 14.585 12.8375L12.845 10.3775C12.77 10.2725 12.68 10.1975 12.5675 10.145C12.4475 10.0925 12.32 10.0625 12.1925 10.0625ZM18.4625 19.2575L18.3425 19.7675L18.545 19.2425C18.5075 19.235 18.4775 19.2425 18.4625 19.2575Z" fill="#101323"/>
</svg>
