<svg width="34" height="34" viewBox="0 0 34 34" fill="none" xmlns="http://www.w3.org/2000/svg">
<rect width="34" height="34" rx="17" fill="white" fill-opacity="0.3"/>
<path d="M17 24.2377C16.7675 24.2377 16.5425 24.2077 16.355 24.1402C13.49 23.1577 8.9375 19.6702 8.9375 14.5177C8.9375 11.8927 11.06 9.7627 13.67 9.7627C14.9375 9.7627 16.1225 10.2577 17 11.1427C17.8775 10.2577 19.0625 9.7627 20.33 9.7627C22.94 9.7627 25.0625 11.9002 25.0625 14.5177C25.0625 19.6777 20.51 23.1577 17.645 24.1402C17.4575 24.2077 17.2325 24.2377 17 24.2377ZM13.67 10.8877C11.6825 10.8877 10.0625 12.5152 10.0625 14.5177C10.0625 19.6402 14.99 22.4902 16.7225 23.0827C16.8575 23.1277 17.15 23.1277 17.285 23.0827C19.01 22.4902 23.945 19.6477 23.945 14.5177C23.945 12.5152 22.325 10.8877 20.3375 10.8877C19.1975 10.8877 18.14 11.4202 17.4575 12.3427C17.2475 12.6277 16.7675 12.6277 16.5575 12.3427C15.86 11.4127 14.81 10.8877 13.67 10.8877Z" fill="#101323"/>
</svg>
