<svg width="42" height="42" viewBox="0 0 42 42" fill="none" xmlns="http://www.w3.org/2000/svg">
<circle cx="21" cy="21" r="20.5" fill="#092328" stroke="#A6C4C4"/>
<path d="M21 23.4375C19.6575 23.4375 18.5625 22.3425 18.5625 21C18.5625 19.6575 19.6575 18.5625 21 18.5625C22.3425 18.5625 23.4375 19.6575 23.4375 21C23.4375 22.3425 22.3425 23.4375 21 23.4375ZM21 19.6875C20.28 19.6875 19.6875 20.28 19.6875 21C19.6875 21.72 20.28 22.3125 21 22.3125C21.72 22.3125 22.3125 21.72 22.3125 21C22.3125 20.28 21.72 19.6875 21 19.6875Z" fill="#A6C4C4"/>
<path d="M25.875 23.4375C25.5675 23.4375 25.3125 23.1825 25.3125 22.875V19.125C25.3125 18.8175 25.5675 18.5625 25.875 18.5625C26.1825 18.5625 26.4375 18.8175 26.4375 19.125V22.875C26.4375 23.1825 26.1825 23.4375 25.875 23.4375Z" fill="#A6C4C4"/>
<path d="M15.75 29.0625C14.505 29.0625 13.335 28.4025 12.705 27.33C12.3675 26.79 12.1875 26.1525 12.1875 25.5C12.1875 23.535 13.785 21.9375 15.75 21.9375C17.715 21.9375 19.3125 23.535 19.3125 25.5C19.3125 26.1525 19.1325 26.79 18.795 27.3375C18.165 28.4025 16.995 29.0625 15.75 29.0625ZM15.75 23.0625C14.4075 23.0625 13.3125 24.1575 13.3125 25.5C13.3125 25.9425 13.4325 26.3775 13.665 26.7525C14.1 27.4875 14.9025 27.9375 15.75 27.9375C16.5975 27.9375 17.4 27.4875 17.835 26.76C18.0675 26.3775 18.1875 25.95 18.1875 25.5C18.1875 24.1575 17.0925 23.0625 15.75 23.0625Z" fill="#A6C4C4"/>
<path d="M16.8753 26.0474H14.6328C14.3253 26.0474 14.0703 25.7924 14.0703 25.4849C14.0703 25.1774 14.3253 24.9224 14.6328 24.9224H16.8753C17.1828 24.9224 17.4378 25.1774 17.4378 25.4849C17.4378 25.7924 17.1828 26.0474 16.8753 26.0474Z" fill="#A6C4C4"/>
<path d="M15.75 27.1951C15.4425 27.1951 15.1875 26.9401 15.1875 26.6326V24.3901C15.1875 24.0826 15.4425 23.8276 15.75 23.8276C16.0575 23.8276 16.3125 24.0826 16.3125 24.3901V26.6326C16.3125 26.9476 16.0575 27.1951 15.75 27.1951Z" fill="#A6C4C4"/>
<path d="M24.75 27.5625H18.375C18.0675 27.5625 17.8125 27.3075 17.8125 27C17.8125 26.6925 18.0675 26.4375 18.375 26.4375H24.75C26.895 26.4375 27.9375 25.395 27.9375 23.25V18.75C27.9375 16.605 26.895 15.5625 24.75 15.5625H17.25C15.105 15.5625 14.0625 16.605 14.0625 18.75V23.475C14.0625 23.7825 13.8075 24.0375 13.5 24.0375C13.1925 24.0375 12.9375 23.7825 12.9375 23.475V18.75C12.9375 16.0125 14.5125 14.4375 17.25 14.4375H24.75C27.4875 14.4375 29.0625 16.0125 29.0625 18.75V23.25C29.0625 25.9875 27.4875 27.5625 24.75 27.5625Z" fill="#A6C4C4"/>
</svg>
