<svg width="16" height="16" viewBox="0 0 16 16" fill="none" xmlns="http://www.w3.org/2000/svg">
<path d="M6.31328 10.1866C6.18661 10.1866 6.05995 10.1399 5.95995 10.0399C5.41328 9.49328 5.11328 8.76661 5.11328 7.99995C5.11328 6.40661 6.40661 5.11328 7.99995 5.11328C8.76661 5.11328 9.49328 5.41328 10.0399 5.95995C10.1333 6.05328 10.1866 6.17995 10.1866 6.31328C10.1866 6.44661 10.1333 6.57328 10.0399 6.66661L6.66661 10.0399C6.56661 10.1399 6.43995 10.1866 6.31328 10.1866ZM7.99995 6.11328C6.95995 6.11328 6.11328 6.95995 6.11328 7.99995C6.11328 8.33328 6.19995 8.65328 6.35995 8.93328L8.93328 6.35995C8.65328 6.19995 8.33328 6.11328 7.99995 6.11328Z" fill="#A6C4C4"/>
<path d="M3.73323 12.3401C3.6199 12.3401 3.4999 12.3001 3.40656 12.2201C2.69323 11.6135 2.05323 10.8668 1.50656 10.0001C0.799896 8.90015 0.799896 7.10682 1.50656 6.00015C3.13323 3.45348 5.4999 1.98682 7.9999 1.98682C9.46656 1.98682 10.9132 2.49348 12.1799 3.44682C12.3999 3.61348 12.4466 3.92682 12.2799 4.14682C12.1132 4.36682 11.7999 4.41348 11.5799 4.24682C10.4866 3.42015 9.24656 2.98682 7.9999 2.98682C5.84656 2.98682 3.78656 4.28015 2.34656 6.54015C1.84656 7.32015 1.84656 8.68015 2.34656 9.46015C2.84656 10.2401 3.4199 10.9135 4.05323 11.4601C4.2599 11.6401 4.28656 11.9535 4.10656 12.1668C4.01323 12.2801 3.87323 12.3401 3.73323 12.3401Z" fill="#A6C4C4"/>
<path d="M7.99972 14.0132C7.11305 14.0132 6.24638 13.8332 5.41305 13.4798C5.15972 13.3732 5.03972 13.0798 5.14638 12.8265C5.25305 12.5732 5.54638 12.4532 5.79972 12.5598C6.50638 12.8598 7.24638 13.0132 7.99305 13.0132C10.1464 13.0132 12.2064 11.7198 13.6464 9.45984C14.1464 8.67984 14.1464 7.31984 13.6464 6.53984C13.4397 6.21317 13.213 5.89984 12.973 5.6065C12.7997 5.39317 12.833 5.07984 13.0464 4.89984C13.2597 4.7265 13.573 4.75317 13.753 4.97317C14.013 5.29317 14.2664 5.63984 14.493 5.99984C15.1997 7.09984 15.1997 8.89317 14.493 9.99984C12.8664 12.5465 10.4997 14.0132 7.99972 14.0132Z" fill="#A6C4C4"/>
<path d="M8.45973 10.8469C8.22639 10.8469 8.01306 10.6802 7.96639 10.4402C7.91306 10.1669 8.09306 9.9069 8.36639 9.86023C9.09973 9.7269 9.71306 9.11356 9.8464 8.38023C9.89973 8.1069 10.1597 7.93356 10.4331 7.98023C10.7064 8.03356 10.8864 8.29356 10.8331 8.5669C10.6197 9.72023 9.69973 10.6336 8.55306 10.8469C8.51973 10.8402 8.49306 10.8469 8.45973 10.8469Z" fill="#A6C4C4"/>
<path d="M1.33427 15.1668C1.2076 15.1668 1.08094 15.1201 0.980938 15.0201C0.787604 14.8268 0.787604 14.5068 0.980938 14.3135L5.96094 9.33348C6.15427 9.14014 6.47427 9.14014 6.6676 9.33348C6.86094 9.52681 6.86094 9.84681 6.6676 10.0401L1.6876 15.0201C1.5876 15.1201 1.46094 15.1668 1.33427 15.1668Z" fill="#A6C4C4"/>
<path d="M9.68583 6.81329C9.55917 6.81329 9.4325 6.76663 9.3325 6.66663C9.13917 6.47329 9.13917 6.15329 9.3325 5.95996L14.3125 0.979961C14.5058 0.786628 14.8258 0.786628 15.0192 0.979961C15.2125 1.17329 15.2125 1.49329 15.0192 1.68663L10.0392 6.66663C9.93917 6.76663 9.8125 6.81329 9.68583 6.81329Z" fill="#A6C4C4"/>
</svg>
