<svg width="18" height="18" viewBox="0 0 18 18" fill="none" xmlns="http://www.w3.org/2000/svg">
<path d="M9.00016 10.6276C7.40266 10.6276 6.09766 9.33008 6.09766 7.72508C6.09766 6.12008 7.40266 4.83008 9.00016 4.83008C10.5977 4.83008 11.9027 6.12758 11.9027 7.73258C11.9027 9.33758 10.5977 10.6276 9.00016 10.6276ZM9.00016 5.95508C8.02516 5.95508 7.22266 6.75008 7.22266 7.73258C7.22266 8.71508 8.01766 9.51008 9.00016 9.51008C9.98266 9.51008 10.7777 8.71508 10.7777 7.73258C10.7777 6.75008 9.97516 5.95508 9.00016 5.95508Z" fill="#101323"/>
<path d="M8.99928 17.07C7.88928 17.07 6.77178 16.65 5.90178 15.8175C3.68928 13.6875 1.24428 10.29 2.16678 6.2475C2.99928 2.58 6.20178 0.9375 8.99928 0.9375C8.99928 0.9375 8.99928 0.9375 9.00678 0.9375C11.8043 0.9375 15.0068 2.58 15.8393 6.255C16.7543 10.2975 14.3093 13.6875 12.0968 15.8175C11.2268 16.65 10.1093 17.07 8.99928 17.07ZM8.99928 2.0625C6.81678 2.0625 4.01178 3.225 3.26928 6.495C2.45928 10.0275 4.67928 13.0725 6.68928 15C7.98678 16.2525 10.0193 16.2525 11.3168 15C13.3193 13.0725 15.5393 10.0275 14.7443 6.495C13.9943 3.225 11.1818 2.0625 8.99928 2.0625Z" fill="#101323"/>
</svg>
