<svg width="19" height="18" viewBox="0 0 19 18" fill="none" xmlns="http://www.w3.org/2000/svg">
<path d="M13.903 16.4023C13.6705 16.4023 13.438 16.3423 13.228 16.2148L10.2206 14.4298C9.90555 14.4223 9.59055 14.3998 9.29055 14.3548C9.08805 14.3248 8.91554 14.1898 8.84054 13.9948C8.76554 13.7998 8.80305 13.5898 8.93805 13.4323C9.43305 12.8548 9.68805 12.1648 9.68805 11.4298C9.68805 9.61481 8.09055 8.1373 6.12555 8.1373C5.39055 8.1373 4.68554 8.33983 4.09304 8.72983C3.92804 8.83483 3.72554 8.84982 3.54554 8.76732C3.37304 8.68482 3.24555 8.5198 3.22305 8.3248C3.20055 8.1148 3.18555 7.90482 3.18555 7.68732C3.18555 3.96732 6.41055 0.944824 10.3705 0.944824C14.3305 0.944824 17.5555 3.96732 17.5555 7.68732C17.5555 9.72732 16.6105 11.6023 14.9455 12.8848L15.2006 14.9248C15.2606 15.4348 15.0355 15.9148 14.608 16.1923C14.398 16.3273 14.1505 16.4023 13.903 16.4023ZM10.363 13.2973C10.468 13.2898 10.573 13.3198 10.663 13.3798L13.8055 15.2473C13.8881 15.2998 13.9555 15.2773 14.0005 15.2473C14.038 15.2248 14.098 15.1648 14.083 15.0598L13.7905 12.6898C13.768 12.4798 13.858 12.2773 14.023 12.1573C15.553 11.0848 16.4305 9.4498 16.4305 7.6723C16.4305 4.5748 13.7155 2.05481 10.3705 2.05481C7.15305 2.05481 4.51304 4.39484 4.31804 7.33484C4.88054 7.11734 5.48805 6.99733 6.11805 6.99733C8.70555 6.99733 10.8055 8.97729 10.8055 11.4148C10.813 12.0748 10.6555 12.7123 10.363 13.2973Z" fill="#667085"/>
<path d="M3.93532 17.0624C3.74032 17.0624 3.55281 17.0099 3.38031 16.8974C3.04281 16.6799 2.86282 16.3049 2.90782 15.9074L3.05782 14.7523C2.04532 13.9274 1.44531 12.7048 1.44531 11.4223C1.44531 9.95985 2.21032 8.59486 3.49282 7.77736C4.26532 7.27486 5.18031 7.00488 6.13281 7.00488C8.72031 7.00488 10.8203 8.98485 10.8203 11.4223C10.8203 12.4123 10.4603 13.3874 9.80031 14.1599C8.95281 15.1874 7.68532 15.7874 6.29032 15.8324L4.46032 16.9199C4.29532 17.0174 4.11532 17.0624 3.93532 17.0624ZM6.12532 8.12988C5.39032 8.12988 4.68531 8.33237 4.09281 8.72237C3.13281 9.33737 2.56282 10.3423 2.56282 11.4223C2.56282 12.4648 3.07282 13.4174 3.97282 14.0324C4.14532 14.1524 4.23531 14.3548 4.21281 14.5648L4.04781 15.8474L5.84031 14.7824C5.93031 14.7299 6.02782 14.6998 6.12532 14.6998C7.22782 14.6998 8.27032 14.2274 8.93032 13.4249C9.42532 12.8399 9.68782 12.1498 9.68782 11.4148C9.68782 9.60734 8.09032 8.12988 6.12532 8.12988Z" fill="#101323"/>
</svg>
