<svg width="19" height="18" viewBox="0 0 19 18" fill="none" xmlns="http://www.w3.org/2000/svg">
<g clip-path="url(#clip0_441_51255)">
<path d="M15.5 3.75H7.25C6.425 3.75 5.75 4.425 5.75 5.25V15.75L8.75 12.75H15.5C16.325 12.75 17 12.075 17 11.25V5.25C17 4.425 16.325 3.75 15.5 3.75ZM15.5 11.25H8.15L7.25 12.15V5.25H15.5V11.25ZM2.75 5.25C2.3 5.25 2 5.55 2 6C2 6.45 2.3 6.75 2.75 6.75H4.25V5.25H2.75ZM2 8.25C1.55 8.25 1.25 8.55 1.25 9C1.25 9.45 1.55 9.75 2 9.75H4.25V8.25H2ZM1.25 11.25C0.8 11.25 0.5 11.55 0.5 12C0.5 12.45 0.8 12.75 1.25 12.75H4.25V11.25H1.25Z" fill="white"/>
</g>
<defs>
<clipPath id="clip0_441_51255">
<rect width="18" height="18" fill="white" transform="translate(0.5)"/>
</clipPath>
</defs>
</svg>
