<svg width="18" height="18" viewBox="0 0 18 18" fill="none" xmlns="http://www.w3.org/2000/svg">
<path d="M9 11.25C10.2426 11.25 11.25 10.2426 11.25 9C11.25 7.75736 10.2426 6.75 9 6.75C7.75736 6.75 6.75 7.75736 6.75 9C6.75 10.2426 7.75736 11.25 9 11.25Z" fill="#FEFEFE"/>
<path d="M12.75 2.625H5.25C3 2.625 1.5 3.75 1.5 6.375V6.75V11.25V11.625C1.5 14.25 3 15.375 5.25 15.375H12.75C15 15.375 16.5 14.25 16.5 11.625V11.25V6.75V6.375C16.5 3.75 15 2.625 12.75 2.625ZM5.25 14.25C5.25 12.135 4.5675 11.355 2.625 11.265V11.25V6.75V6.735C4.5675 6.645 5.25 5.865 5.25 3.75H12.75C12.75 5.865 13.4325 6.645 15.375 6.735V6.75V11.25V11.265C13.4325 11.355 12.75 12.135 12.75 14.25H5.25Z" fill="#FEFEFE"/>
</svg>
