<svg width="42" height="42" viewBox="0 0 42 42" fill="none" xmlns="http://www.w3.org/2000/svg">
<circle cx="21" cy="21" r="20.5" fill="#092328" stroke="#A6C4C4"/>
<path d="M22.6652 28.2225C21.7802 28.2225 20.5277 27.6 19.5377 24.6225L18.9977 23.0025L17.3777 22.4625C14.4077 21.4725 13.7852 20.22 13.7852 19.335C13.7852 18.4575 14.4077 17.1975 17.3777 16.2L23.7452 14.0775C25.3352 13.545 26.6627 13.7025 27.4802 14.5125C28.2977 15.3225 28.4552 16.6575 27.9227 18.2475L25.8002 24.615C24.8027 27.6 23.5502 28.2225 22.6652 28.2225ZM17.7302 17.2725C15.6452 17.97 14.9027 18.795 14.9027 19.335C14.9027 19.875 15.6452 20.7 17.7302 21.39L19.6202 22.02C19.7852 22.0725 19.9202 22.2075 19.9727 22.3725L20.6027 24.2625C21.2927 26.3475 22.1252 27.09 22.6652 27.09C23.2052 27.09 24.0302 26.3475 24.7277 24.2625L26.8502 17.895C27.2327 16.74 27.1652 15.795 26.6777 15.3075C26.1902 14.82 25.2452 14.76 24.0977 15.1425L17.7302 17.2725Z" fill="#A6C4C4"/>
<path d="M19.5821 22.8C19.4396 22.8 19.2971 22.7475 19.1846 22.635C18.9671 22.4175 18.9671 22.0575 19.1846 21.84L21.8696 19.1475C22.0871 18.93 22.4471 18.93 22.6646 19.1475C22.8821 19.365 22.8821 19.725 22.6646 19.9425L19.9796 22.635C19.8746 22.7475 19.7246 22.8 19.5821 22.8Z" fill="#A6C4C4"/>
</svg>
