<svg width="16" height="16" viewBox="0 0 16 16" fill="none" xmlns="http://www.w3.org/2000/svg">
<path d="M7.99995 10.8866C6.40661 10.8866 5.11328 9.59328 5.11328 7.99995C5.11328 6.40661 6.40661 5.11328 7.99995 5.11328C9.59328 5.11328 10.8866 6.40661 10.8866 7.99995C10.8866 9.59328 9.59328 10.8866 7.99995 10.8866ZM7.99995 6.11328C6.95995 6.11328 6.11328 6.95995 6.11328 7.99995C6.11328 9.03995 6.95995 9.88661 7.99995 9.88661C9.03995 9.88661 9.88661 9.03995 9.88661 7.99995C9.88661 6.95995 9.03995 6.11328 7.99995 6.11328Z" fill="#A6C4C4"/>
<path d="M8.0007 14.0135C5.49404 14.0135 3.12737 12.5468 1.5007 10.0002C0.794036 8.90015 0.794036 7.10682 1.5007 6.00015C3.13404 3.45348 5.5007 1.98682 8.0007 1.98682C10.5007 1.98682 12.8674 3.45348 14.494 6.00015C15.2007 7.10015 15.2007 8.89348 14.494 10.0002C12.8674 12.5468 10.5007 14.0135 8.0007 14.0135ZM8.0007 2.98682C5.84737 2.98682 3.78737 4.28015 2.34737 6.54015C1.84737 7.32015 1.84737 8.68015 2.34737 9.46015C3.78737 11.7201 5.84737 13.0135 8.0007 13.0135C10.154 13.0135 12.214 11.7201 13.654 9.46015C14.154 8.68015 14.154 7.32015 13.654 6.54015C12.214 4.28015 10.154 2.98682 8.0007 2.98682Z" fill="#A6C4C4"/>
</svg>
