<svg width="42" height="42" viewBox="0 0 42 42" fill="none" xmlns="http://www.w3.org/2000/svg">
<circle cx="21" cy="21" r="20.5" fill="#092328" stroke="#A6C4C4"/>
<path d="M24.75 27.5625H18.375C18.0675 27.5625 17.8125 27.3075 17.8125 27C17.8125 26.6925 18.0675 26.4375 18.375 26.4375H24.75C26.895 26.4375 27.9375 25.395 27.9375 23.25V18.75C27.9375 16.605 26.895 15.5625 24.75 15.5625H17.25C15.105 15.5625 14.0625 16.605 14.0625 18.75V23.475C14.0625 23.7825 13.8075 24.0375 13.5 24.0375C13.1925 24.0375 12.9375 23.7825 12.9375 23.475V18.75C12.9375 16.0125 14.5125 14.4375 17.25 14.4375H24.75C27.4875 14.4375 29.0625 16.0125 29.0625 18.75V23.25C29.0625 25.9875 27.4875 27.5625 24.75 27.5625Z" fill="#A6C4C4"/>
<path d="M21 23.4375C19.6575 23.4375 18.5625 22.3425 18.5625 21C18.5625 19.6575 19.6575 18.5625 21 18.5625C22.3425 18.5625 23.4375 19.6575 23.4375 21C23.4375 22.3425 22.3425 23.4375 21 23.4375ZM21 19.6875C20.28 19.6875 19.6875 20.28 19.6875 21C19.6875 21.72 20.28 22.3125 21 22.3125C21.72 22.3125 22.3125 21.72 22.3125 21C22.3125 20.28 21.72 19.6875 21 19.6875Z" fill="#A6C4C4"/>
<path d="M25.875 23.4375C25.5675 23.4375 25.3125 23.1825 25.3125 22.875V19.125C25.3125 18.8175 25.5675 18.5625 25.875 18.5625C26.1825 18.5625 26.4375 18.8175 26.4375 19.125V22.875C26.4375 23.1825 26.1825 23.4375 25.875 23.4375Z" fill="#A6C4C4"/>
<path d="M15.75 29.0625C14.505 29.0625 13.335 28.4025 12.705 27.33C12.3675 26.79 12.1875 26.1525 12.1875 25.5C12.1875 23.535 13.785 21.9375 15.75 21.9375C17.715 21.9375 19.3125 23.535 19.3125 25.5C19.3125 26.1525 19.1325 26.79 18.795 27.3375C18.165 28.4025 16.995 29.0625 15.75 29.0625ZM15.75 23.0625C14.4075 23.0625 13.3125 24.1575 13.3125 25.5C13.3125 25.9425 13.4325 26.3775 13.665 26.7525C14.1 27.4875 14.9025 27.9375 15.75 27.9375C16.5975 27.9375 17.4 27.4875 17.835 26.76C18.0675 26.3775 18.1875 25.95 18.1875 25.5C18.1875 24.1575 17.0925 23.0625 15.75 23.0625Z" fill="#A6C4C4"/>
<path d="M16.5533 26.8423C16.4108 26.8423 16.2683 26.7898 16.1558 26.6773L14.5733 25.0948C14.3558 24.8773 14.3558 24.5173 14.5733 24.2998C14.7908 24.0823 15.1508 24.0823 15.3683 24.2998L16.9508 25.8823C17.1683 26.0998 17.1683 26.4598 16.9508 26.6773C16.8383 26.7898 16.6958 26.8423 16.5533 26.8423Z" fill="#A6C4C4"/>
<path d="M14.9473 26.8648C14.8048 26.8648 14.6623 26.8123 14.5498 26.6998C14.3323 26.4823 14.3323 26.1223 14.5498 25.9048L16.1323 24.3223C16.3498 24.1048 16.7098 24.1048 16.9273 24.3223C17.1448 24.5398 17.1448 24.8998 16.9273 25.1173L15.3448 26.6998C15.2323 26.8123 15.0898 26.8648 14.9473 26.8648Z" fill="#A6C4C4"/>
</svg>
