<svg width="18" height="18" viewBox="0 0 18 18" fill="none" xmlns="http://www.w3.org/2000/svg">
<path d="M15.6672 5.85183H2.33388C2.03017 5.85183 1.77832 5.59998 1.77832 5.29628C1.77832 4.99257 2.03017 4.74072 2.33388 4.74072H15.6672C15.9709 4.74072 16.2228 4.99257 16.2228 5.29628C16.2228 5.59998 15.9709 5.85183 15.6672 5.85183Z" fill="#101323"/>
<path d="M15.6672 9.55593H2.33388C2.03017 9.55593 1.77832 9.30408 1.77832 9.00038C1.77832 8.69668 2.03017 8.44482 2.33388 8.44482H15.6672C15.9709 8.44482 16.2228 8.69668 16.2228 9.00038C16.2228 9.30408 15.9709 9.55593 15.6672 9.55593Z" fill="#101323"/>
<path d="M15.6672 13.2595H2.33388C2.03017 13.2595 1.77832 13.0077 1.77832 12.704C1.77832 12.4003 2.03017 12.1484 2.33388 12.1484H15.6672C15.9709 12.1484 16.2228 12.4003 16.2228 12.704C16.2228 13.0077 15.9709 13.2595 15.6672 13.2595Z" fill="#101323"/>
</svg>
